<?xml version="1.0" encoding="UTF-8" standalone="no"?>
<!DOCTYPE svg PUBLIC "-//W3C//DTD SVG 1.1//EN"
 "http://www.w3.org/Graphics/SVG/1.1/DTD/svg11.dtd">
<!-- Generated by graphviz version 3.0.0 (20220226.1711)
 -->
<!-- Title: dependencies Pages: 1 -->
<svg width="856pt" height="174pt"
 viewBox="0.00 0.00 856.00 173.80" xmlns="http://www.w3.org/2000/svg" xmlns:xlink="http://www.w3.org/1999/xlink">
<g id="graph0" class="graph" transform="scale(1 1) rotate(0) translate(4 169.8)">
<title>dependencies</title>
<polygon fill="white" stroke="transparent" points="-4,4 -4,-169.8 852,-169.8 852,4 -4,4"/>
<text text-anchor="middle" x="424" y="-8.2" font-family="sans-serif" font-size="14.00">dependencies</text>
<g id="clust1" class="cluster">
<title>cluster_AppModule</title>
<polygon fill="none" stroke="black" stroke-dasharray="1,5" points="8,-32.8 8,-157.8 840,-157.8 840,-32.8 8,-32.8"/>
</g>
<g id="clust6" class="cluster">
<title>cluster_AppModule_providers</title>
<polygon fill="none" stroke="black" points="16,-40.8 16,-92.8 832,-92.8 832,-40.8 16,-40.8"/>
</g>
<!-- AppService -->
<g id="node1" class="node">
<title>AppService</title>
<ellipse fill="#fdb462" stroke="black" cx="767" cy="-66.8" rx="56.75" ry="18"/>
<text text-anchor="middle" x="767" y="-62.6" font-family="Times,serif" font-size="14.00">AppService</text>
</g>
<!-- AppModule -->
<g id="node6" class="node">
<title>AppModule</title>
<polygon fill="#8dd3c7" stroke="black" points="474.66,-149.8 471.66,-153.8 450.66,-153.8 447.66,-149.8 391.34,-149.8 391.34,-113.8 474.66,-113.8 474.66,-149.8"/>
<text text-anchor="middle" x="433" y="-127.6" font-family="Times,serif" font-size="14.00">AppModule</text>
</g>
<!-- AppService&#45;&gt;AppModule -->
<g id="edge1" class="edge">
<title>AppService&#45;&gt;AppModule</title>
<path fill="none" stroke="black" d="M767,-85.08C767,-106.12 767,-137.8 767,-137.8 767,-137.8 484.96,-137.8 484.96,-137.8"/>
<polygon fill="black" stroke="black" points="484.96,-134.3 474.96,-137.8 484.96,-141.3 484.96,-134.3"/>
</g>
<!-- ImageUploadService -->
<g id="node2" class="node">
<title>ImageUploadService</title>
<ellipse fill="#fdb462" stroke="black" cx="600" cy="-66.8" rx="92.6" ry="18"/>
<text text-anchor="middle" x="600" y="-62.6" font-family="Times,serif" font-size="14.00">ImageUploadService</text>
</g>
<!-- ImageUploadService&#45;&gt;AppModule -->
<g id="edge2" class="edge">
<title>ImageUploadService&#45;&gt;AppModule</title>
<path fill="none" stroke="black" d="M600,-84.82C600,-102.17 600,-125.8 600,-125.8 600,-125.8 484.71,-125.8 484.71,-125.8"/>
<polygon fill="black" stroke="black" points="484.71,-122.3 474.71,-125.8 484.71,-129.3 484.71,-122.3"/>
</g>
<!-- JwtStrategy -->
<g id="node3" class="node">
<title>JwtStrategy</title>
<ellipse fill="#fdb462" stroke="black" cx="433" cy="-66.8" rx="56.77" ry="18"/>
<text text-anchor="middle" x="433" y="-62.6" font-family="Times,serif" font-size="14.00">JwtStrategy</text>
</g>
<!-- JwtStrategy&#45;&gt;AppModule -->
<g id="edge3" class="edge">
<title>JwtStrategy&#45;&gt;AppModule</title>
<path fill="none" stroke="black" d="M433,-84.91C433,-84.91 433,-103.79 433,-103.79"/>
<polygon fill="black" stroke="black" points="429.5,-103.79 433,-113.79 436.5,-103.79 429.5,-103.79"/>
</g>
<!-- PostMediaService -->
<g id="node4" class="node">
<title>PostMediaService</title>
<ellipse fill="#fdb462" stroke="black" cx="277" cy="-66.8" rx="81.11" ry="18"/>
<text text-anchor="middle" x="277" y="-62.6" font-family="Times,serif" font-size="14.00">PostMediaService</text>
</g>
<!-- PostMediaService&#45;&gt;AppModule -->
<g id="edge4" class="edge">
<title>PostMediaService&#45;&gt;AppModule</title>
<path fill="none" stroke="black" d="M277,-84.82C277,-102.17 277,-125.8 277,-125.8 277,-125.8 381.19,-125.8 381.19,-125.8"/>
<polygon fill="black" stroke="black" points="381.19,-129.3 391.19,-125.8 381.19,-122.3 381.19,-129.3"/>
</g>
<!-- s3UploadService -->
<g id="node5" class="node">
<title>s3UploadService</title>
<ellipse fill="#fdb462" stroke="black" cx="101" cy="-66.8" rx="77.02" ry="18"/>
<text text-anchor="middle" x="101" y="-62.6" font-family="Times,serif" font-size="14.00">s3UploadService</text>
</g>
<!-- s3UploadService&#45;&gt;AppModule -->
<g id="edge5" class="edge">
<title>s3UploadService&#45;&gt;AppModule</title>
<path fill="none" stroke="black" d="M101,-85.08C101,-106.12 101,-137.8 101,-137.8 101,-137.8 381.29,-137.8 381.29,-137.8"/>
<polygon fill="black" stroke="black" points="381.29,-141.3 391.29,-137.8 381.29,-134.3 381.29,-141.3"/>
</g>
</g>
</svg>
