<svg width="36" height="24" viewBox="0 0 36 24" fill="none" xmlns="http://www.w3.org/2000/svg">
<path d="M26.7692 24H5.40923C3.97461 24 2.59875 23.4301 1.58433 22.4157C0.5699 21.4012 0 20.0254 0 18.5908V5.40923C0 3.97461 0.5699 2.59875 1.58433 1.58433C2.59875 0.5699 3.97461 0 5.40923 0H29.6677C31.1023 0 32.4782 0.5699 33.4926 1.58433C34.507 2.59875 35.0769 3.97461 35.0769 5.40923C35.0769 5.65405 34.9797 5.88884 34.8066 6.06195C34.6334 6.23506 34.3987 6.33231 34.1538 6.33231C33.909 6.33231 33.6742 6.23506 33.5011 6.06195C33.328 5.88884 33.2308 5.65405 33.2308 5.40923C33.2332 4.94064 33.1427 4.47621 32.9645 4.04281C32.7863 3.60942 32.524 3.21565 32.1926 2.8843C31.8613 2.55295 31.4675 2.29059 31.0341 2.1124C30.6007 1.9342 30.1363 1.84371 29.6677 1.84615H5.40923C4.94064 1.84371 4.47621 1.9342 4.04281 2.1124C3.60942 2.29059 3.21566 2.55295 2.88431 2.8843C2.55295 3.21565 2.29058 3.60942 2.11239 4.04281C1.93419 4.47621 1.84371 4.94064 1.84615 5.40923V18.5908C1.84371 19.0594 1.93419 19.5238 2.11239 19.9572C2.29058 20.3906 2.55295 20.7843 2.88431 21.1157C3.21566 21.447 3.60942 21.7094 4.04281 21.8876C4.47621 22.0658 4.94064 22.1563 5.40923 22.1538H26.7692C27.014 22.1538 27.2488 22.2511 27.4219 22.4242C27.5951 22.5973 27.6923 22.8321 27.6923 23.0769C27.6923 23.3217 27.5951 23.5565 27.4219 23.7296C27.2488 23.9027 27.014 24 26.7692 24Z" fill="#383838"/>
<path d="M35.1508 17.7229C35.6198 17.7229 36 17.3427 36 16.8736C36 16.4046 35.6198 16.0244 35.1508 16.0244H27.6185C27.1494 16.0244 26.7692 16.4046 26.7692 16.8736C26.7692 17.3427 27.1494 17.7229 27.6185 17.7229H35.1508Z" fill="#383838"/>
<path d="M30.5354 20.6586C30.5354 21.1276 30.9156 21.5078 31.3847 21.5078C31.8537 21.5078 32.2339 21.1276 32.2339 20.6586V13.1263C32.2339 12.6573 31.8537 12.277 31.3847 12.277C30.9156 12.277 30.5354 12.6573 30.5354 13.1263V20.6586Z" fill="#383838"/>
</svg>
