<svg width="32" height="32" viewBox="0 0 32 32" fill="none" xmlns="http://www.w3.org/2000/svg">
<g clip-path="url(#clip0_17685_53461)">
<path d="M30.0919 21.1825H19.3376C19.0547 21.1825 18.7833 21.0701 18.5832 20.8701C18.3832 20.67 18.2708 20.3986 18.2708 20.1157C18.2708 19.8327 18.3832 19.5614 18.5832 19.3613C18.7833 19.1612 19.0547 19.0488 19.3376 19.0488H30.0885C30.3714 19.0488 30.6428 19.1612 30.8428 19.3613C31.0429 19.5614 31.1553 19.8327 31.1553 20.1157C31.1553 20.3986 31.0429 20.67 30.8428 20.8701C30.6428 21.0701 30.3714 21.1825 30.0885 21.1825H30.0919Z" fill="#2BBD54"/>
<path d="M16.7519 23.7719C16.0297 23.7719 15.3237 23.5578 14.7232 23.1567C14.1226 22.7555 13.6544 22.1854 13.3778 21.5182C13.1013 20.851 13.0287 20.1169 13.1692 19.4085C13.3098 18.7001 13.6572 18.0492 14.1676 17.5382C14.6779 17.0272 15.3283 16.679 16.0366 16.5375C16.7448 16.3961 17.4791 16.4678 18.1466 16.7435C18.8141 17.0193 19.3848 17.4867 19.7867 18.0868C20.1886 18.6868 20.4036 19.3926 20.4045 20.1148C20.4045 21.0839 20.0199 22.0135 19.335 22.6992C18.6501 23.3849 17.7211 23.7707 16.7519 23.7719Z" fill="#2BBD54"/>
<path d="M14.1657 21.1825H1.06686C0.783909 21.1825 0.51255 21.0701 0.312475 20.8701C0.112401 20.67 0 20.3986 0 20.1157C0 19.8327 0.112401 19.5614 0.312475 19.3613C0.51255 19.1612 0.783909 19.0488 1.06686 19.0488H14.1663C14.4492 19.0488 14.7206 19.1612 14.9207 19.3613C15.1207 19.5614 15.2331 19.8327 15.2331 20.1157C15.2331 20.3986 15.1207 20.67 14.9207 20.8701C14.7206 21.0701 14.4492 21.1825 14.1663 21.1825H14.1657Z" fill="#2BBD54"/>
<path d="M30.092 12.9501H9.54171C9.25876 12.9501 8.9874 12.8377 8.78733 12.6376C8.58725 12.4376 8.47485 12.1662 8.47485 11.8833C8.47485 11.6003 8.58725 11.329 8.78733 11.1289C8.9874 10.9288 9.25876 10.8164 9.54171 10.8164H30.092C30.3749 10.8164 30.6463 10.9288 30.8464 11.1289C31.0464 11.329 31.1588 11.6003 31.1588 11.8833C31.1588 12.1662 31.0464 12.4376 30.8464 12.6376C30.6463 12.8377 30.3749 12.9501 30.092 12.9501Z" fill="#2BBD54"/>
<path d="M6.95531 15.5356C6.23276 15.5359 5.52633 15.322 4.92541 14.9208C4.32448 14.5195 3.85606 13.9491 3.57939 13.2816C3.30272 12.6141 3.23025 11.8796 3.37113 11.1709C3.51201 10.4622 3.85992 9.81121 4.37084 9.30028C4.88177 8.78936 5.53275 8.44145 6.24144 8.30057C6.95013 8.15969 7.68468 8.23217 8.35217 8.50883C9.01966 8.7855 9.5901 9.25393 9.99131 9.85485C10.3925 10.4558 10.6065 11.1622 10.6062 11.8848C10.605 12.8531 10.2197 13.7814 9.53502 14.4662C8.85029 15.1509 7.92195 15.5361 6.9536 15.5373L6.95531 15.5356Z" fill="#2BBD54"/>
<path d="M4.36971 12.9501H1.06686C0.783909 12.9501 0.51255 12.8377 0.312475 12.6376C0.112401 12.4376 0 12.1662 0 11.8833C0 11.6003 0.112401 11.329 0.312475 11.1289C0.51255 10.9288 0.783909 10.8164 1.06686 10.8164H4.36971C4.65266 10.8164 4.92402 10.9288 5.1241 11.1289C5.32417 11.329 5.43657 11.6003 5.43657 11.8833C5.43657 12.1662 5.32417 12.4376 5.1241 12.6376C4.92402 12.8377 4.65266 12.9501 4.36971 12.9501Z" fill="#2BBD54"/>
<path d="M20.0709 4.71965H1.06686C0.926755 4.71965 0.788026 4.69206 0.658589 4.63844C0.529151 4.58483 0.411542 4.50624 0.312475 4.40718C0.213408 4.30811 0.134824 4.1905 0.0812099 4.06106C0.0275953 3.93163 0 3.7929 0 3.65279C0 3.51269 0.0275953 3.37396 0.0812099 3.24453C0.134824 3.11509 0.213408 2.99748 0.312475 2.89841C0.411542 2.79935 0.529151 2.72076 0.658589 2.66715C0.788026 2.61353 0.926755 2.58594 1.06686 2.58594H20.0709C20.211 2.58594 20.3497 2.61353 20.4791 2.66715C20.6086 2.72076 20.7262 2.79935 20.8252 2.89841C20.9243 2.99748 21.0029 3.11509 21.0565 3.24453C21.1101 3.37396 21.1377 3.51269 21.1377 3.65279C21.1377 3.7929 21.1101 3.93163 21.0565 4.06106C21.0029 4.1905 20.9243 4.30811 20.8252 4.40718C20.7262 4.50624 20.6086 4.58483 20.4791 4.63844C20.3497 4.69206 20.211 4.71965 20.0709 4.71965Z" fill="#2BBD54"/>
<path d="M22.6565 7.30514C21.9341 7.30514 21.2279 7.09092 20.6272 6.68957C20.0266 6.28822 19.5584 5.71777 19.2819 5.05035C19.0055 4.38293 18.9332 3.64852 19.0741 2.93999C19.215 2.23146 19.5629 1.58064 20.0737 1.06981C20.5845 0.558993 21.2354 0.21112 21.9439 0.0701847C22.6524 -0.0707504 23.3868 0.00158258 24.0543 0.278037C24.7217 0.554491 25.2921 1.02265 25.6935 1.62331C26.0948 2.22397 26.309 2.93016 26.309 3.65257C26.3078 4.62092 25.9226 5.54926 25.2379 6.23399C24.5532 6.91872 23.6248 7.30393 22.6565 7.30514Z" fill="#2BBD54"/>
<path d="M30.092 4.71965H25.2429C25.1028 4.71965 24.9641 4.69206 24.8346 4.63844C24.7052 4.58483 24.5876 4.50624 24.4885 4.40718C24.3894 4.30811 24.3108 4.1905 24.2572 4.06106C24.2036 3.93163 24.176 3.7929 24.176 3.65279C24.176 3.51269 24.2036 3.37396 24.2572 3.24453C24.3108 3.11509 24.3894 2.99748 24.4885 2.89841C24.5876 2.79935 24.7052 2.72076 24.8346 2.66715C24.9641 2.61353 25.1028 2.58594 25.2429 2.58594H30.092C30.375 2.58594 30.6463 2.69834 30.8464 2.89841C31.0465 3.09849 31.1589 3.36985 31.1589 3.65279C31.1589 3.93574 31.0465 4.2071 30.8464 4.40718C30.6463 4.60725 30.375 4.71965 30.092 4.71965Z" fill="#2BBD54"/>
<path d="M30.092 29.415H9.54171C9.25876 29.415 8.9874 29.3026 8.78733 29.1025C8.58725 28.9024 8.47485 28.6311 8.47485 28.3481C8.47485 28.0652 8.58725 27.7938 8.78733 27.5937C8.9874 27.3937 9.25876 27.2812 9.54171 27.2812H30.092C30.3749 27.2812 30.6463 27.3937 30.8464 27.5937C31.0464 27.7938 31.1588 28.0652 31.1588 28.3481C31.1588 28.6311 31.0464 28.9024 30.8464 29.1025C30.6463 29.3026 30.3749 29.415 30.092 29.415Z" fill="#2BBD54"/>
<path d="M6.95531 32.0005C6.23281 32.0008 5.52643 31.7869 4.92553 31.3857C4.32463 30.9845 3.8562 30.4141 3.5795 29.7467C3.3028 29.0793 3.23026 28.3448 3.37104 27.6361C3.51183 26.9275 3.85963 26.2765 4.37044 25.7655C4.88125 25.2546 5.53212 24.9066 6.24074 24.7656C6.94935 24.6245 7.68387 24.6969 8.35138 24.9733C9.01889 25.2498 9.5894 25.7181 9.99076 26.3189C10.3921 26.9196 10.6063 27.6259 10.6062 28.3485C10.6048 29.3164 10.2198 30.2444 9.53543 30.9289C8.85108 31.6135 7.92327 31.9988 6.95531 32.0005Z" fill="#2BBD54"/>
<path d="M4.36971 29.415H1.06686C0.783909 29.415 0.51255 29.3026 0.312475 29.1025C0.112401 28.9024 0 28.6311 0 28.3481C0 28.0652 0.112401 27.7938 0.312475 27.5937C0.51255 27.3937 0.783909 27.2812 1.06686 27.2812H4.36971C4.65266 27.2812 4.92402 27.3937 5.1241 27.5937C5.32417 27.7938 5.43657 28.0652 5.43657 28.3481C5.43657 28.6311 5.32417 28.9024 5.1241 29.1025C4.92402 29.3026 4.65266 29.415 4.36971 29.415Z" fill="#2BBD54"/>
</g>
<defs>
<clipPath id="clip0_17685_53461">
<rect width="31.156" height="32" fill="white"/>
</clipPath>
</defs>
</svg>
