<svg width="84" height="84" viewBox="0 0 84 84" fill="none" xmlns="http://www.w3.org/2000/svg">
<path d="M41.9999 35.1752C36.4324 35.1752 31.9199 39.7616 31.9199 45.4127C31.9199 51.0638 36.4324 55.6502 41.9999 55.6502C47.5641 55.6502 52.0799 51.0638 52.0799 45.4127C52.0799 39.7616 47.5641 35.1752 41.9999 35.1752ZM68.8799 24.9377H60.8159C59.7071 24.9377 58.5109 24.0641 58.1649 22.9926L56.0783 16.6419C55.7255 15.5738 54.5361 14.7002 53.4239 14.7002H30.5759C29.4671 14.7002 28.2709 15.5738 27.9249 16.6385L25.8349 22.9926C25.4855 24.0641 24.2927 24.9377 23.1839 24.9377H15.1199C11.4239 24.9377 8.3999 28.0089 8.3999 31.7627V62.4752C8.3999 66.2289 11.4239 69.3002 15.1199 69.3002H68.8799C72.5759 69.3002 75.5999 66.2289 75.5999 62.4752V31.7627C75.5999 28.0089 72.5759 24.9377 68.8799 24.9377ZM41.9999 62.4752C32.7196 62.4752 25.1999 54.838 25.1999 45.4127C25.1999 35.9874 32.7196 28.3502 41.9999 28.3502C51.2769 28.3502 58.7999 35.9874 58.7999 45.4127C58.7999 54.838 51.2769 62.4752 41.9999 62.4752ZM67.1999 35.8577C65.8996 35.8577 64.8479 34.7862 64.8479 33.4655C64.8479 32.1517 65.8996 31.0768 67.1999 31.0768C68.5002 31.0768 69.5519 32.1483 69.5519 33.4655C69.5519 34.7862 68.5002 35.8577 67.1999 35.8577Z" fill="#3F434A"/>
</svg>
