<svg width="32" height="32" viewBox="0 0 32 32" fill="none" xmlns="http://www.w3.org/2000/svg">
<path fill-rule="evenodd" clip-rule="evenodd" d="M26 30.4014V26H32V22.8H26V7.59714C25.9992 7.17379 25.8307 6.76799 25.5314 6.46863C25.232 6.16927 24.8262 6.00076 24.4029 6H9.2V0H6V6H0V9.2H6V24.4029C6.00076 24.8262 6.16927 25.232 6.46863 25.5314C6.76799 25.8307 7.17379 25.9992 7.59714 26H22.8V32H26V30.4014ZM9.2 9.2V22.8H22.8V9.2H9.2ZM9.2 6H12.4V9.2H9.2V6ZM22.8 19.6H26V22.8H22.8V19.6Z" fill="#2BBD54"/>
</svg>
