<svg width="28" height="28" viewBox="0 0 28 28" fill="none" xmlns="http://www.w3.org/2000/svg">
<path fill-rule="evenodd" clip-rule="evenodd" d="M22.6034 24.7543C23.1973 25.3483 24.1603 25.3483 24.7542 24.7543C25.3483 24.1604 25.3483 23.1973 24.7542 22.6034L16.1507 13.9998L24.7544 5.39617C25.3483 4.80221 25.3483 3.83923 24.7544 3.24527C24.1603 2.65132 23.1973 2.65132 22.6034 3.24527L13.9998 11.8488L5.39617 3.24529C4.80221 2.65133 3.83923 2.65133 3.24527 3.24529C2.65132 3.83925 2.65132 4.80225 3.24527 5.39621L11.8488 13.9998L3.24529 22.6034C2.65133 23.1973 2.65133 24.1602 3.24529 24.7543C3.83925 25.3483 4.80223 25.3483 5.39619 24.7543L13.9998 16.1507L22.6034 24.7543Z" fill="#3F434A"/>
</svg>
