<svg width="32" height="31" viewBox="0 0 32 31" fill="none" xmlns="http://www.w3.org/2000/svg">
<g clip-path="url(#clip0_17685_21220)">
<path d="M6.22828 9.76703C6.22784 8.46975 6.48594 7.18539 6.98748 5.98898C7.48903 4.79257 8.22397 3.7081 9.14937 2.79893C10.0748 1.88977 11.1721 1.17413 12.3772 0.693831C13.5823 0.213531 14.871 -0.0217994 16.1681 0.00158673C17.4651 0.0249729 18.7445 0.306607 19.9315 0.830036C21.1185 1.35346 22.1893 2.10819 23.0813 3.05013C23.9734 3.99206 24.6687 5.10232 25.1268 6.31603C25.5849 7.52974 25.7966 8.82257 25.7494 10.119C23.3352 9.31306 20.7167 9.36579 18.3369 10.2683C15.9571 11.1707 13.9621 12.8675 12.6893 15.0716C12.0879 16.1088 11.6631 17.2388 11.4323 18.4153C9.85974 17.5841 8.54394 16.3394 7.62684 14.8153C6.70975 13.2913 6.22617 11.5457 6.22828 9.76703ZM13.7704 15.6937C13.197 16.6959 12.8055 17.7917 12.6139 18.9303C13.9605 19.43 15.401 19.6257 16.8321 19.5035C18.2632 19.3813 19.6496 18.9441 20.892 18.2234C22.1344 17.5027 23.2021 16.5161 24.0186 15.3345C24.8351 14.1528 25.3803 12.8052 25.615 11.3882C23.4523 10.5904 21.0771 10.583 18.9095 11.3675C16.7419 12.152 14.9215 13.6778 13.7704 15.675V15.6937ZM11.2563 19.7226C9.71312 18.9864 8.36233 17.9012 7.31078 16.553C6.25923 15.2047 5.53574 13.6303 5.19753 11.9542C3.42887 12.8903 1.99035 14.3469 1.07649 16.1271C0.162628 17.9074 -0.182476 19.9253 0.0878435 21.908C0.358163 23.8908 1.23087 25.7427 2.58793 27.2133C3.945 28.6839 5.72096 29.7022 7.67564 30.1307C10.1744 30.6924 12.7939 30.2404 14.9599 28.8737C13.6747 27.7401 12.6707 26.3233 12.0271 24.7352C11.3835 23.147 11.1179 21.431 11.2513 19.7226H11.2563ZM27.1263 12.1087C27.0193 12.0455 26.9065 11.9952 26.7995 11.9384C26.4922 13.4728 25.8619 14.9242 24.9503 16.1961C24.0387 17.468 22.8667 18.5312 21.5124 19.3151C20.1581 20.099 18.6524 20.5856 17.0955 20.7426C15.5385 20.8995 13.966 20.7232 12.4825 20.2254C12.4286 21.7719 12.7423 23.3092 13.3978 24.7109C14.0534 26.1126 15.032 27.3389 16.2535 28.289C17.3422 29.1465 18.6033 29.7589 19.9504 30.0843C21.2976 30.4097 22.6991 30.4405 24.0592 30.1745C26.0176 29.8005 27.8147 28.8365 29.2095 27.4119C30.6043 25.9872 31.53 24.1701 31.8624 22.2042C32.1948 20.2384 31.918 18.2179 31.0691 16.4139C30.2202 14.6098 28.8399 13.1086 27.1134 12.1115L27.1263 12.1087Z" fill="#2BBD54"/>
</g>
<defs>
<clipPath id="clip0_17685_21220">
<rect width="32" height="30.3659" fill="white"/>
</clipPath>
</defs>
</svg>
