<svg width="17" height="17" viewBox="0 0 17 17" fill="none" xmlns="http://www.w3.org/2000/svg">
<path d="M15.0042 6.31677C14.9538 4.62439 14.2461 3.01821 13.0312 1.83893C11.8163 0.659646 10.1898 3.07547e-05 8.49666 1.07543e-09C6.80354 -3.07525e-05 5.177 0.659525 3.96206 1.83877C2.74713 3.01801 2.03937 4.62416 1.98893 6.31653C0.757207 6.58371 0.0644531 7.69106 0.0644531 9.44537C0.0644531 11.4737 0.990511 12.6372 2.60502 12.6372C2.77713 12.6372 2.94223 12.5691 3.06428 12.4477C3.18633 12.3264 3.25541 12.1617 3.25643 11.9896L3.28887 6.51405C3.28886 5.82938 3.42376 5.15142 3.68587 4.51891C3.94798 3.8864 4.33216 3.31174 4.81646 2.82777C5.30076 2.3438 5.87568 1.96 6.50836 1.69832C7.14105 1.43664 7.8191 1.3022 8.50377 1.30268C9.18844 1.30316 9.8663 1.43855 10.4986 1.70112C11.1309 1.96369 11.7053 2.34829 12.1889 2.83294C12.6726 3.31759 13.0559 3.89279 13.3172 4.52567C13.5784 5.15854 13.7123 5.83669 13.7114 6.52136L13.7766 12.3115C13.7766 13.7392 12.3986 14.502 9.68204 14.5833C9.51989 14.319 9.27396 14.1165 8.98342 14.0081C8.69288 13.8997 8.37442 13.8916 8.07874 13.9851C7.78307 14.0786 7.52717 14.2683 7.3518 14.5241C7.17643 14.7799 7.09166 15.0869 7.11099 15.3964C7.13031 15.7059 7.25263 16.0001 7.45846 16.232C7.66429 16.464 7.94181 16.6204 8.24682 16.6764C8.55183 16.7324 8.86681 16.6847 9.1416 16.541C9.4164 16.3973 9.63522 16.1658 9.76322 15.8833C13.9041 15.7414 14.969 14.0711 15.0702 12.5573C16.2638 12.2662 16.9359 11.1679 16.9359 9.44537C16.9359 7.68804 16.2398 6.58158 15.0042 6.31677Z" fill="#3F434A"/>
</svg>
