<svg width="111" height="90" viewBox="0 0 111 90" fill="none" xmlns="http://www.w3.org/2000/svg">
<g clip-path="url(#clip0_17701_307095)">
<path d="M25.4756 48.042H85.4223V52.5381H25.4756V48.042Z" fill="#8A9099"/>
<path d="M25.4756 57.0312H85.4223V61.5273H25.4756V57.0312Z" fill="#8A9099"/>
<path d="M25.4756 66.0273H67.4381V70.5234H25.4756V66.0273Z" fill="#8A9099"/>
<path d="M47.9561 19.5635H85.4224V42.0438H47.9561V19.5635Z" fill="#8A9099"/>
<path d="M25.4756 19.5635H44.9577V42.0438H25.4756V19.5635Z" fill="#8A9099"/>
<path d="M102.659 0.0810547H8.24193C6.06185 0.099838 3.97638 0.974213 2.43477 2.51582C0.893158 4.05743 0.0187833 6.14291 0 8.32299V81.7579C0.0181132 83.9384 0.892193 86.0246 2.43387 87.5667C3.97556 89.1089 6.06141 89.9836 8.24193 90.0024H102.659C104.839 89.9836 106.925 89.1093 108.467 87.5676C110.008 86.026 110.883 83.9406 110.901 81.7605V8.32299C110.883 6.14291 110.008 4.05743 108.467 2.51582C106.925 0.974213 104.839 0.099838 102.659 0.0810547ZM106.405 81.7605C106.41 82.2537 106.316 82.743 106.13 83.1996C105.943 83.6563 105.668 84.0711 105.319 84.4199C104.97 84.7687 104.555 85.0445 104.099 85.231C103.642 85.4175 103.153 85.5112 102.659 85.5064H8.24193C7.74868 85.5112 7.25943 85.4175 6.80279 85.231C6.34615 85.0445 5.93129 84.7687 5.5825 84.4199C5.2337 84.0711 4.95796 83.6563 4.77142 83.1996C4.58487 82.743 4.49126 82.2537 4.49607 81.7605V8.32556C4.49126 7.83231 4.58487 7.34305 4.77142 6.88641C4.95796 6.42977 5.2337 6.01492 5.5825 5.66612C5.93129 5.31732 6.34615 5.04159 6.80279 4.85504C7.25943 4.66849 7.74868 4.57489 8.24193 4.57969H102.659C103.153 4.57489 103.642 4.66849 104.099 4.85504C104.555 5.04159 104.97 5.31732 105.319 5.66612C105.668 6.01492 105.943 6.42977 106.13 6.88641C106.316 7.34305 106.41 7.83231 106.405 8.32556V81.7605Z" fill="#8A9099"/>
</g>
<defs>
<clipPath id="clip0_17701_307095">
<rect width="110.901" height="89.9188" fill="white" transform="translate(0 0.0810547)"/>
</clipPath>
</defs>
</svg>
