<svg width="32" height="32" viewBox="0 0 32 32" fill="none" xmlns="http://www.w3.org/2000/svg">
<path d="M18.9332 14.6663L23.9998 21.333H7.99984L11.9998 16.133L14.7998 19.733L18.6665 14.6663H18.9332ZM11.3332 14.6663C12.3998 14.6663 13.3332 13.733 13.3332 12.6663C13.3332 11.5997 12.3998 10.6663 11.3332 10.6663C10.2665 10.6663 9.33317 11.5997 9.33317 12.6663C9.33317 13.733 10.2665 14.6663 11.3332 14.6663ZM29.3332 7.99967V23.9997C29.3332 25.4663 28.1332 26.6663 26.6665 26.6663H5.33317C3.8665 26.6663 2.6665 25.4663 2.6665 23.9997V7.99967C2.6665 6.53301 3.8665 5.33301 5.33317 5.33301H26.6665C28.1332 5.33301 29.3332 6.53301 29.3332 7.99967ZM26.6665 11.733V7.99967H5.33317V23.9997H26.6665V11.733Z" fill="black"/>
</svg>
