<svg width="33" height="32" viewBox="0 0 33 32" fill="none" xmlns="http://www.w3.org/2000/svg">
<path d="M15.188 22.6663H9.85466C8.08654 22.6663 6.39085 21.964 5.14061 20.7137C3.89037 19.4635 3.18799 17.7678 3.18799 15.9997C3.18799 14.2316 3.89037 12.5359 5.14061 11.2856C6.39085 10.0354 8.08654 9.33301 9.85466 9.33301H15.188V11.9997H9.85466C8.79379 11.9997 7.77637 12.4211 7.02623 13.1712C6.27608 13.9214 5.85466 14.9388 5.85466 15.9997C5.85466 17.0605 6.27608 18.078 7.02623 18.8281C7.77637 19.5782 8.79379 19.9997 9.85466 19.9997H15.188V22.6663ZM23.188 9.33301H17.8547V11.9997H23.188C24.2489 11.9997 25.2663 12.4211 26.0164 13.1712C26.7666 13.9214 27.188 14.9388 27.188 15.9997C27.188 17.0605 26.7666 18.078 26.0164 18.8281C25.2663 19.5782 24.2489 19.9997 23.188 19.9997H17.8547V22.6663H23.188C24.9561 22.6663 26.6518 21.964 27.902 20.7137C29.1523 19.4635 29.8547 17.7678 29.8547 15.9997C29.8547 14.2316 29.1523 12.5359 27.902 11.2856C26.6518 10.0354 24.9561 9.33301 23.188 9.33301ZM21.8547 14.6663H11.188V17.333H21.8547V14.6663Z" fill="black"/>
</svg>
