<svg width="33" height="32" viewBox="0 0 33 32" fill="none" xmlns="http://www.w3.org/2000/svg">
<path d="M20.5215 10.6667V21.3333H7.18815V10.6667H20.5215ZM23.1882 14V9.33333C23.1882 8.97971 23.0477 8.64057 22.7976 8.39052C22.5476 8.14048 22.2084 8 21.8548 8H5.85482C5.5012 8 5.16206 8.14048 4.91201 8.39052C4.66196 8.64057 4.52148 8.97971 4.52148 9.33333V22.6667C4.52148 23.0203 4.66196 23.3594 4.91201 23.6095C5.16206 23.8595 5.5012 24 5.85482 24H21.8548C22.2084 24 22.5476 23.8595 22.7976 23.6095C23.0477 23.3594 23.1882 23.0203 23.1882 22.6667V18L26.2415 21.0533C26.428 21.2414 26.6662 21.3696 26.9259 21.4217C27.1856 21.4738 27.4549 21.4474 27.6995 21.3458C27.9441 21.2443 28.1529 21.0722 28.2993 20.8515C28.4457 20.6308 28.523 20.3715 28.5215 20.1067V11.88C28.523 11.6152 28.4457 11.3559 28.2993 11.1352C28.1529 10.9145 27.9441 10.7424 27.6995 10.6408C27.4549 10.5393 27.1856 10.5129 26.9259 10.565C26.6662 10.6171 26.428 10.7453 26.2415 10.9333L23.1882 14Z" fill="black"/>
</svg>
