<svg width="79" height="100" viewBox="0 0 79 100" fill="none" xmlns="http://www.w3.org/2000/svg">
<path d="M55.6042 0H2.66849C1.19471 0 0 1.16964 0 3.43929V98.2143C0 98.8304 1.19471 100 2.66849 100H75.7629C77.2366 100 78.4314 98.8304 78.4314 98.2143V23.175C78.4314 21.9321 78.2617 21.5321 77.9626 21.2375L56.7387 0.458929C56.4377 0.166071 56.0292 0 55.6042 0Z" fill="#F2F2E8"/>
<path d="M56.543 0.269531V21.4285H78.1554L56.543 0.269531Z" fill="#D9D7CA"/>
<path d="M75.7629 99.9997H2.66849C1.19471 99.9997 0 98.8301 0 97.3872V69.6426H78.4314V97.3872C78.4314 98.8301 77.2366 99.9997 75.7629 99.9997Z" fill="#E2574C"/>
<path d="M20.6755 94.6432H17.71V76.6504H22.9472C23.7206 76.6504 24.4869 76.7718 25.2441 77.0165C26.0013 77.2611 26.6808 77.6272 27.2826 78.1147C27.8844 78.6022 28.3705 79.1932 28.741 79.8843C29.1114 80.5754 29.2976 81.3522 29.2976 82.2165C29.2976 83.129 29.1403 83.954 28.8277 84.695C28.5151 85.4361 28.0777 86.0593 27.5175 86.5629C26.9573 87.0665 26.2814 87.4575 25.4917 87.7343C24.7019 88.0111 23.8272 88.1486 22.8731 88.1486H20.6737V94.6432H20.6755ZM20.6755 78.8718V86.0004H23.3935C23.755 86.0004 24.1128 85.9397 24.4688 85.8165C24.823 85.695 25.1483 85.495 25.4447 85.2182C25.741 84.9415 25.9796 84.5558 26.1603 84.0593C26.341 83.5629 26.4314 82.9486 26.4314 82.2165C26.4314 81.9236 26.3898 81.5843 26.3085 81.204C26.2254 80.8218 26.0573 80.4558 25.8025 80.1058C25.5459 79.7558 25.188 79.4629 24.7272 79.2272C24.2664 78.9915 23.6556 78.8736 22.8984 78.8736H20.6755V78.8718Z" fill="white"/>
<path d="M47.4836 85.1468C47.4836 86.6272 47.3228 87.8932 47.0011 88.9432C46.6794 89.9932 46.2728 90.8718 45.7776 91.5807C45.2825 92.2897 44.7276 92.8468 44.1096 93.254C43.4915 93.6611 42.8952 93.9647 42.3187 94.17C41.7422 94.3736 41.2145 94.504 40.7374 94.5611C40.2603 94.6147 39.9061 94.6432 39.6748 94.6432H32.7822V76.6504H38.267C39.7995 76.6504 41.1458 76.8915 42.306 77.37C43.4662 77.8486 44.4313 78.4897 45.1975 79.2861C45.9638 80.0825 46.5348 80.9915 46.9143 82.0075C47.2938 83.0254 47.4836 84.0718 47.4836 85.1468ZM38.6881 92.495C40.6976 92.495 42.147 91.8611 43.0361 90.5915C43.9253 89.3218 44.3698 87.4825 44.3698 85.0736C44.3698 84.3254 44.2795 83.5843 44.0988 82.8522C43.9162 82.12 43.5674 81.4575 43.0488 80.8629C42.5301 80.2682 41.8253 79.7879 40.9362 79.4218C40.0471 79.0558 38.8941 78.8718 37.4773 78.8718H35.7478V92.495H38.6881Z" fill="white"/>
<path d="M54.7966 78.8718V84.5361H62.4066V86.5379H54.7966V94.6432H51.7822V76.6504H63.171V78.8718H54.7966Z" fill="white"/>
<path d="M23.5189 59.5074C22.89 59.5074 22.2864 59.3056 21.7713 58.9252C19.8901 57.5306 19.6371 55.9788 19.7563 54.9216C20.0852 52.0145 23.7231 48.9716 30.5723 45.8717C33.2903 39.9859 35.8763 32.7342 37.4178 26.6752C35.6143 22.7967 33.8613 17.7645 35.139 14.8127C35.5872 13.7788 36.1456 12.9859 37.1883 12.6431C37.6004 12.5074 38.6413 12.3359 39.0244 12.3359C39.9352 12.3359 40.7358 13.4949 41.3033 14.2092C41.8364 14.8806 43.0454 16.3038 40.6292 26.3556C43.0653 31.327 46.517 36.3913 49.8241 39.8591C52.1933 39.4359 54.2318 39.2199 55.8926 39.2199C58.7226 39.2199 60.4376 39.8717 61.137 41.2145C61.7153 42.3252 61.4786 43.6234 60.4322 45.0717C59.4256 46.4627 58.0377 47.1984 56.4203 47.1984C54.2228 47.1984 51.6638 45.827 48.8103 43.1181C43.6833 44.177 37.6961 46.0663 32.8565 48.1574C31.3457 51.3252 29.8982 53.877 28.55 55.7484C26.6977 58.3109 25.1001 59.5074 23.5189 59.5074ZM28.3296 50.3538C24.4676 52.4984 22.8936 54.2609 22.7797 55.2538C22.7617 55.4181 22.7129 55.8502 23.5586 56.4895C23.8279 56.4056 25.4001 55.6967 28.3296 50.3538ZM52.974 42.4216C54.4468 43.5413 54.8065 44.1074 55.7697 44.1074C56.1926 44.1074 57.398 44.0895 57.9564 43.3199C58.2257 42.9467 58.3305 42.7074 58.372 42.5788C58.1497 42.4627 57.8552 42.227 56.2486 42.227C55.336 42.2288 54.1884 42.2681 52.974 42.4216ZM39.4744 30.6681C38.1823 35.0859 36.4763 39.8556 34.642 44.1752C38.419 42.727 42.5249 41.4627 46.3814 40.5681C43.9417 37.7681 41.5039 34.2717 39.4744 30.6681ZM38.3775 15.5574C38.2004 15.6163 35.9739 18.6949 38.5509 21.3002C40.266 17.5234 38.4552 15.5324 38.3775 15.5574Z" fill="#E2574C"/>
</svg>
