<svg width="15" height="17" viewBox="0 0 15 17" fill="none" xmlns="http://www.w3.org/2000/svg">
<path d="M13.2947 6.83127L3.99789 1.03759C3.3917 0.667051 2.65065 0.633451 2.01059 0.970155C1.37053 1.30709 1 1.94688 1 2.68799V14.309C1 15.0165 1.37054 15.6563 2.01059 16.0269C2.31369 16.1953 2.61678 16.2628 2.95374 16.2628C3.32428 16.2628 3.66123 16.1617 3.99789 15.9597L13.2947 10.166C13.8673 9.79545 14.2043 9.18927 14.2043 8.5154C14.2043 7.84202 13.8673 7.20196 13.2947 6.83144V6.83127ZM12.5537 8.98706L3.25684 14.7807C2.98734 14.9492 2.75167 14.8482 2.65065 14.7807C2.54961 14.7133 2.34754 14.5787 2.34754 14.2756V2.65453C2.34754 2.35142 2.54961 2.18296 2.65065 2.14936C2.71808 2.11576 2.81911 2.08193 2.95375 2.08193C3.05478 2.08193 3.15582 2.11553 3.25685 2.18296L12.5537 7.97664C12.7896 8.14511 12.8232 8.38078 12.8232 8.48181C12.857 8.58285 12.8232 8.81875 12.5537 8.98698L12.5537 8.98706Z" fill="white" stroke="white" stroke-width="0.5"/>
</svg>
