<svg width="25" height="32" viewBox="0 0 25 32" fill="none" xmlns="http://www.w3.org/2000/svg">
<g clip-path="url(#clip0_22597_325788)">
<path d="M7.92113 31.9994C7.65287 31.861 7.52336 31.6252 7.42665 31.3511C6.96748 30.056 6.49906 28.7652 6.03317 27.4727C5.99869 27.3769 5.95917 27.2835 5.91291 27.166C5.13754 27.3719 4.379 27.5727 3.62129 27.7752C2.91236 27.9652 2.20343 28.1544 1.49533 28.3494C1.17829 28.4369 0.886477 28.4302 0.666145 28.1527C0.452541 27.8844 0.525704 27.6144 0.672032 27.3377C1.69717 25.4044 2.71725 23.4677 3.73818 21.5319C3.79116 21.4319 3.83826 21.3294 3.89208 21.2194C3.04943 20.411 2.32873 19.5227 1.72912 18.5352C-1.89795 12.5519 0.386104 4.57187 6.66473 1.40771C7.50906 0.981873 8.43244 0.705207 9.3289 0.386873C9.67118 0.265207 9.94617 0.389373 10.0975 0.646873C10.2388 0.88854 10.2405 1.14604 10.0462 1.34104C9.91506 1.47271 9.71911 1.56604 9.53494 1.61521C8.14062 1.99187 6.8489 2.58021 5.7094 3.46021C2.63568 5.83604 1.12363 8.96771 1.29098 12.8244C1.50122 17.6652 4.84825 21.7035 9.59297 22.9669C15.5722 24.5585 21.8752 20.7885 23.2426 14.8019C24.589 8.90938 21.1142 3.18854 15.2308 1.61521C14.9146 1.53021 14.6606 1.38854 14.6135 1.03604C14.5513 0.570207 14.9911 0.220206 15.4982 0.394373C16.3972 0.704373 17.3248 0.981873 18.1573 1.42521C21.7062 3.31521 23.9272 6.24021 24.6016 10.1785C25.3089 14.3069 24.1156 17.9169 21.1798 20.9452C21.0931 21.0344 20.9855 21.1044 20.8829 21.1869C20.9821 21.3769 21.057 21.5235 21.1335 21.6694C22.1309 23.5585 23.1283 25.4477 24.124 27.3377C24.3207 27.7102 24.309 27.9794 24.092 28.201C23.8649 28.4319 23.5942 28.4286 23.3032 28.3494C21.9476 27.9811 20.5902 27.6169 19.2338 27.2519C19.1244 27.2227 19.0134 27.2002 18.8772 27.1685C18.5879 27.9669 18.3045 28.746 18.0228 29.5269C17.7999 30.1435 17.6006 30.7694 17.3492 31.3744C17.2525 31.6069 17.0389 31.7919 16.8782 31.9986H16.4998C16.3383 31.8152 16.1348 31.6544 16.023 31.4452C14.8708 29.2869 13.7339 27.1219 12.5927 24.9577C12.5372 24.8527 12.4783 24.7502 12.4009 24.6094C12.3177 24.7602 12.2613 24.8577 12.2084 24.9577C11.0663 27.121 9.92935 29.2869 8.77723 31.4444C8.66538 31.6535 8.46103 31.8144 8.30041 31.9977H7.92197L7.92113 31.9994ZM4.8861 22.0544C4.04682 23.646 3.22604 25.2019 2.37498 26.816C2.55327 26.7685 2.65334 26.7419 2.75257 26.7152C3.84499 26.421 4.9374 26.1252 6.03065 25.8344C6.51588 25.7052 6.78415 25.8485 6.95991 26.3202C7.03223 26.5152 7.09867 26.7127 7.16931 26.9077C7.5099 27.8519 7.85133 28.7961 8.21967 29.8152C9.17248 28.0102 10.0908 26.2702 11.026 24.4985C8.74528 24.2252 6.72444 23.4227 4.88694 22.0544H4.8861ZM22.4227 26.811C21.5649 25.1869 20.7416 23.6285 19.9107 22.0552C18.0682 23.4294 16.044 24.2277 13.7742 24.5019C14.7111 26.2752 15.6302 28.0169 16.5805 29.816C17.0145 28.611 17.4198 27.4852 17.826 26.3594C18.0169 25.8302 18.265 25.7035 18.8183 25.851C19.9923 26.1635 21.1655 26.4769 22.4235 26.8119L22.4227 26.811Z" fill="#8EA6BD"/>
<path d="M12.5894 0C12.6399 0.035 12.6904 0.0683333 12.74 0.104167C12.9839 0.281667 13.0915 0.515 12.9965 0.806667C12.9031 1.0925 12.6895 1.25083 12.3842 1.24417C12.0933 1.23833 11.8906 1.08 11.8031 0.806667C11.7098 0.515 11.8158 0.280833 12.0605 0.104167C12.1093 0.0683333 12.1606 0.0341667 12.211 0C12.3372 0 12.4633 0 12.5894 0Z" fill="#8EA6BD"/>
<path d="M3.15238 12.2793C3.16668 7.21009 7.33281 3.10342 12.4391 3.12509C17.5211 3.14675 21.6578 7.26509 21.6485 12.2934C21.6393 17.3584 17.4639 21.4726 12.3618 21.4443C7.27058 21.4159 3.13808 17.3034 3.15238 12.2793ZM20.3871 12.2968C20.3997 7.95842 16.8264 4.39509 12.4425 4.37509C8.02828 4.35509 4.42896 7.89675 4.41383 12.2759C4.39869 16.6251 7.98708 20.1868 12.3895 20.1943C16.7911 20.2009 20.3736 16.6643 20.3871 12.2968Z" fill="#8EA6BD"/>
<path d="M13.3046 17.289H12.7597V18.3973H11.669V17.289H11.1518L10.3125 16.4573V14.3373H11.6547V15.9031L11.9347 16.1806H12.5217L12.8018 15.9031V13.0765L12.5217 12.799H11.1795L10.3403 11.9673V8.14313L11.1795 7.31146H11.669V6.20312H12.7597V7.31146H13.2491L14.0884 8.14313V10.0831H12.7462V8.69729L12.4662 8.41979H11.9625L11.6824 8.69729V11.3856L11.9625 11.6631H13.3046L14.1439 12.4948V16.4573L13.3046 17.289Z" fill="#8EA6BD"/>
</g>
<defs>
<clipPath id="clip0_22597_325788">
<rect width="24.8" height="32" fill="white"/>
</clipPath>
</defs>
</svg>
