<svg width="16" height="16" viewBox="0 0 16 16" fill="none" xmlns="http://www.w3.org/2000/svg">
<g clip-path="url(#clip0_22049_329263)">
<path d="M15.7356 7.85859C16.1419 7.38886 16.0794 6.63729 15.548 6.29282L15.2042 6.07361C14.8292 5.82309 14.6729 5.35335 14.7979 4.91494L14.9229 4.50783C15.1104 3.91284 14.7041 3.28653 14.079 3.19258L13.6727 3.12995C13.2351 3.06732 12.8601 2.72285 12.7975 2.28443L12.735 1.87733C12.61 1.28233 11.9849 0.875232 11.3911 1.06313L10.9847 1.18839C10.5472 1.31365 10.0783 1.15707 9.82828 0.781286L9.57823 0.436815C9.20317 -0.0642335 8.48429 -0.15818 8.01546 0.280237L7.70291 0.562077C7.3591 0.875232 6.89026 0.937863 6.48394 0.718655L6.10888 0.530762C5.57754 0.217606 4.85866 0.46813 4.63987 1.06313L4.48359 1.43891C4.32732 1.84601 3.88974 2.12785 3.45216 2.09654L3.04584 2.06522C2.42073 2.03391 1.92065 2.56627 1.9519 3.19258L1.98316 3.59968C2.01441 4.0381 1.73311 4.4452 1.32679 4.6331L0.951729 4.78967C0.38913 5.00888 0.139087 5.72914 0.451641 6.2615L0.67043 6.60597C0.889218 7.01308 0.857962 7.48281 0.545408 7.82728L0.264109 8.14043C-0.142212 8.61017 -0.0797014 9.36174 0.451641 9.70621L0.795451 9.92542C1.17052 10.1759 1.32679 10.6457 1.20177 11.0841L1.07675 11.4912C0.889218 12.0862 1.29554 12.7125 1.92065 12.8064L2.32697 12.8691C2.76454 12.9317 3.13961 13.2762 3.20212 13.7146L3.26463 14.1217C3.38965 14.7167 4.01476 15.1238 4.60862 14.9359L5.01494 14.8106C5.45251 14.6854 5.92135 14.842 6.17139 15.2177L6.42143 15.5622C6.7965 16.0633 7.51537 16.1572 7.98421 15.7188L8.29676 15.437C8.64057 15.1238 9.1094 15.0612 9.51572 15.2804L9.89079 15.4683C10.4221 15.7814 11.141 15.5309 11.3598 14.9359L11.5161 14.5601C11.6723 14.153 12.1099 13.8712 12.5475 13.9025L12.9538 13.9338C13.5789 13.9651 14.079 13.4328 14.0478 12.8064L14.0165 12.3993C13.9853 11.9609 14.2666 11.5538 14.6729 11.3659L15.0479 11.2094C15.6105 10.9901 15.8606 10.2699 15.548 9.73753L15.3292 9.39306C15.1104 8.98595 15.1417 8.51622 15.4543 8.17175L15.7356 7.85859V7.85859ZM11.5161 7.35755L9.85953 8.70411L10.3596 10.7396C10.4534 11.0528 10.2033 11.3033 9.9533 11.3033C9.89079 11.3033 9.79702 11.3033 9.73451 11.2407L7.95295 10.1446L6.17139 11.2407C6.10888 11.272 6.04637 11.3033 5.9526 11.3033C5.70256 11.3033 5.45251 11.0528 5.54628 10.7396L6.04637 8.70411L4.42108 7.35755C4.10853 7.07571 4.29606 6.57466 4.67113 6.57466L6.76524 6.41808L7.57788 4.47652C7.6404 4.28862 7.82793 4.19468 7.98421 4.19468C8.14048 4.19468 8.32802 4.28862 8.39053 4.47652L9.17247 6.41808L11.2666 6.57466C11.6417 6.60597 11.8292 7.10702 11.5166 7.35755H11.5161Z" fill="white"/>
</g>
<defs>
<clipPath id="clip0_22049_329263">
<rect width="16" height="16" fill="white"/>
</clipPath>
</defs>
</svg>
