<svg width="55" height="40" viewBox="0 0 55 40" fill="none" xmlns="http://www.w3.org/2000/svg">
<path d="M53.8496 19.2457C53.5813 18.944 47.1704 11.8247 37.8808 8.0624C37.2986 7.82624 36.6362 8.10555 36.402 8.68902C36.1666 9.27045 36.4476 9.93254 37.0286 10.1679C44.0926 13.0279 49.5357 18.0906 51.4296 19.9993C48.7187 22.7282 38.7328 31.905 27.0679 31.905C26.3192 31.905 25.5781 31.8671 24.8472 31.7963C24.2092 31.7376 23.6669 32.1924 23.607 32.817C23.546 33.4416 24.0032 33.9974 24.6278 34.0572C25.432 34.135 26.2463 34.1769 27.0684 34.1769C41.7321 34.1769 53.3626 21.304 53.8514 20.7557C54.2338 20.3249 54.2338 19.6751 53.851 19.2447L53.8496 19.2457Z" fill="white"/>
<path d="M37.2793 1.63343C37.5533 1.06992 37.3192 0.389912 36.7545 0.114733C36.1897 -0.160446 35.5122 0.0768667 35.2358 0.639575L32.4182 6.42418C30.6148 6.05162 28.8172 5.82401 27.068 5.82401C12.4054 5.82401 0.774872 18.6959 0.287054 19.2442C-0.0956847 19.6746 -0.0956847 20.3248 0.287054 20.7552C0.630299 21.14 8.51512 29.8599 19.4568 33.033L16.8587 38.3669C16.5847 38.9304 16.8188 39.6104 17.3835 39.8856C17.5431 39.9633 17.7129 40 17.8795 40C18.3009 40 18.7048 39.7647 18.9023 39.3612L34.0851 8.19293L37.2793 1.63343ZM27.0684 8.09639C28.4792 8.09639 29.9287 8.27513 31.3868 8.54264L28.5998 14.2646C28.103 14.1323 27.5945 14.0468 27.0688 14.0468C23.7867 14.0468 21.1152 16.7178 21.1152 20.0003C21.1152 21.9039 22.0318 23.6022 23.5102 24.7133L20.478 30.9381C11.8022 28.5448 4.88768 22.1978 2.70709 20.0008C5.41437 17.2715 15.3851 8.09716 27.0688 8.09716L27.0684 8.09639ZM24.5187 22.6413C23.8102 21.9597 23.3864 21.0236 23.3864 20C23.3864 17.9698 25.0383 16.3184 27.068 16.3184C27.2398 16.3184 27.4043 16.3518 27.5712 16.3746L24.5187 22.6413Z" fill="white"/>
</svg>
