<svg width="24" height="24" viewBox="0 0 24 24" fill="none" xmlns="http://www.w3.org/2000/svg">
<path d="M12 24C18.6274 24 24 18.6274 24 12C24 5.37258 18.6274 0 12 0C5.37258 0 0 5.37258 0 12C0 18.6274 5.37258 24 12 24Z" fill="#59A111"/>
<path d="M17.75 8H16.22C16.4018 7.698 16.4985 7.35246 16.5 7C16.5 6.46954 16.2893 5.96083 15.9142 5.58583C15.5392 5.21071 15.0304 5 14.5 5C13.4938 5.00078 12.555 5.5058 12 6.34497C11.445 5.5058 10.5061 5.00077 9.49999 5C8.96953 5 8.46081 5.21071 8.08581 5.58583C7.7107 5.96083 7.49999 6.46954 7.49999 7C7.50144 7.35246 7.5982 7.698 7.78001 8H6.24998C5.80344 8 5.39072 8.23828 5.16749 8.625C4.94417 9.01171 4.94417 9.48829 5.16749 9.875C5.39071 10.2617 5.80344 10.5 6.24998 10.5H17.75C18.1965 10.5 18.6092 10.2617 18.8325 9.875C19.0558 9.48829 19.0558 9.01171 18.8325 8.625C18.6093 8.23829 18.1965 8 17.75 8H17.75ZM14.5 6C14.8572 6 15.1874 6.19063 15.366 6.5C15.5446 6.80937 15.5446 7.19063 15.366 7.5C15.1874 7.80937 14.8572 8 14.5 8H12.5C12.5 7.46954 12.7107 6.96083 13.0858 6.58583C13.4608 6.21071 13.9695 6 14.5 6ZM8.49999 7C8.49999 6.73482 8.60535 6.48046 8.79285 6.29286C8.98046 6.10536 9.23482 6 9.49999 6C10.0304 6 10.5392 6.21071 10.9142 6.58583C11.2893 6.96083 11.5 7.46954 11.5 8H9.49999C9.23481 8 8.98045 7.89464 8.79285 7.70714C8.60535 7.51953 8.49999 7.26517 8.49999 7ZM17.75 11C17.8331 11.0076 17.9168 11.0076 18 11V17.5C18 17.8979 17.842 18.2793 17.5607 18.5607C17.2793 18.842 16.8979 19 16.5 19H12.5V11H17.75ZM6.24999 11H11.5V19H7.49999C7.10211 19 6.72065 18.842 6.43928 18.5607C6.15803 18.2794 5.99999 17.8979 5.99999 17.5V11C6.08314 11.0076 6.16684 11.0076 6.24999 11Z" fill="white"/>
</svg>
