<svg width="24" height="24" viewBox="0 0 24 24" fill="none" xmlns="http://www.w3.org/2000/svg">
<path d="M12 24C18.6274 24 24 18.6274 24 12C24 5.37258 18.6274 0 12 0C5.37258 0 0 5.37258 0 12C0 18.6274 5.37258 24 12 24Z" fill="#7612F9"/>
<path d="M15.607 10.6094H19V18.2408H15.607V10.6094Z" fill="white"/>
<path d="M5.54008 11.6105C5.37279 11.5011 5.23556 11.3515 5.14089 11.1754C5.04622 10.9993 4.99712 10.8023 4.99808 10.6024C4.99951 10.2866 5.1256 9.98412 5.34891 9.7608C5.57222 9.53749 5.87469 9.4114 6.1905 9.40998H9.8436C9.7777 8.36053 9.79582 7.30749 9.8978 6.26093C10.1092 4.35308 12.1255 5.17692 12.1255 5.17692C11.0414 7.50754 14.3477 11.643 14.3477 11.643V17.8165H7.55093C7.23513 17.815 6.93266 17.689 6.70934 17.4656C6.48603 17.2423 6.35994 16.9399 6.35852 16.6241C6.35928 16.3093 6.4839 16.0075 6.70541 15.7839C6.42141 15.7447 6.16122 15.6039 5.97292 15.3877C5.78462 15.1715 5.68093 14.8945 5.68101 14.6078C5.68002 14.4525 5.71022 14.2987 5.7698 14.1553C5.82939 14.0119 5.91716 13.8819 6.0279 13.7731C5.74339 13.734 5.48256 13.5934 5.29336 13.3773C5.10417 13.1613 4.99931 12.8842 4.99808 12.597C5.0007 12.4007 5.05149 12.2081 5.146 12.0361C5.24051 11.8641 5.37584 11.718 5.54008 11.6105Z" fill="white"/>
</svg>
