<svg width="24" height="24" viewBox="0 0 24 24" fill="none" xmlns="http://www.w3.org/2000/svg">
<path d="M12 24C18.6274 24 24 18.6274 24 12C24 5.37258 18.6274 0 12 0C5.37258 0 0 5.37258 0 12C0 18.6274 5.37258 24 12 24Z" fill="#EA1F41"/>
<path d="M12.0024 18.8177L17.4694 14.3941C18.0875 13.9014 18.5483 13.2391 18.7956 12.4883C19.8018 9.33983 16.9408 5.99659 13.5651 7.29493C12.6377 7.65198 12.0024 8.84831 12.0024 8.84831C12.0024 8.84831 11.344 7.65198 10.4351 7.29493C7.05481 5.9734 4.19846 9.33983 5.20467 12.4883C5.45169 13.2404 5.9145 13.9032 6.53547 14.3941L12.0024 18.8177Z" fill="white"/>
</svg>
