<svg width="20" height="23" viewBox="0 0 20 23" fill="none" xmlns="http://www.w3.org/2000/svg">
<path d="M5.36784 21.4399C2.97959 20.3856 1.10782 18.4259 0.164122 15.9918L1.83404 15.3456C2.3312 16.6352 3.15168 17.7752 4.21663 18.656C5.28158 19.5369 6.55519 20.1291 7.91508 20.3756C9.27496 20.6222 10.6754 20.5148 11.9818 20.0639C13.2882 19.6129 14.4567 18.8335 15.3749 17.8006C16.2932 16.7677 16.9303 15.516 17.2251 14.1657C17.5199 12.8155 17.4624 11.4121 17.0582 10.0904C16.6541 8.76882 15.9168 7.57335 14.9172 6.61894C13.9176 5.66453 12.6893 4.98326 11.3504 4.6406L12.3435 7.20236L10.6747 7.84735L8.52182 2.29488L14.0748 0.142237L14.7213 1.81008L11.8465 2.92375C12.3485 3.05408 12.8394 3.2238 13.3146 3.43134C18.2778 5.62149 20.5355 11.4454 18.3454 16.4087C16.1552 21.3719 10.3313 23.6296 5.36805 21.4394L5.36784 21.4399Z" fill="black"/>
</svg>
