<svg width="20" height="23" viewBox="0 0 20 23" fill="none" xmlns="http://www.w3.org/2000/svg">
<path d="M14.5599 21.4399C16.9481 20.3856 18.8199 18.4259 19.7636 15.9918L18.0937 15.3456C17.5965 16.6352 16.7761 17.7752 15.7111 18.656C14.6462 19.5369 13.3725 20.1291 12.0127 20.3756C10.6528 20.6222 9.25233 20.5148 7.94592 20.0639C6.6395 19.6129 5.47104 18.8335 4.55281 17.8006C3.63458 16.7677 2.99745 15.516 2.70266 14.1657C2.40787 12.8155 2.46532 11.4121 2.86949 10.0904C3.27367 8.76882 4.01098 7.57335 5.01057 6.61894C6.01016 5.66453 7.23842 4.98326 8.57733 4.6406L7.58424 7.20236L9.25307 7.84735L11.4059 2.29488L5.85297 0.142237L5.20642 1.81008L8.08124 2.92375C7.57928 3.05408 7.08838 3.2238 6.61311 3.43134C1.6499 5.62149 -0.607795 11.4454 1.58236 16.4087C3.77252 21.3719 9.59648 23.6296 14.5597 21.4394L14.5599 21.4399Z" fill="black"/>
</svg>
