<svg width="28" height="25" viewBox="0 0 28 25" fill="none" xmlns="http://www.w3.org/2000/svg">
<g clip-path="url(#clip0_17686_305630)">
<path d="M6.80143 21.8643C6.32343 21.9994 6.01692 21.9778 5.92645 21.9062C5.28912 21.4052 5.35798 18.4319 5.40254 16.4632C5.42009 15.7422 5.4363 15.0035 5.4363 14.269C5.43589 14.1646 5.42504 14.0606 5.40389 13.9584C5.35651 13.4327 5.17927 12.9269 4.88808 12.4866C5.17803 12.0477 5.3552 11.544 5.40389 11.0202C5.42504 10.918 5.43589 10.814 5.4363 10.7096C5.4363 9.97508 5.42009 9.23648 5.40254 8.51543C5.35798 6.54806 5.28912 3.57338 5.92645 3.07243C6.01692 3.00086 6.32208 2.98601 6.80143 3.11428C7.17812 3.18953 7.56932 3.11861 7.89562 2.91594C8.22192 2.71326 8.45888 2.39401 8.55837 2.02299C8.65787 1.65198 8.61246 1.25701 8.43136 0.918254C8.25026 0.579501 7.94704 0.322356 7.58325 0.19902C6.1533 -0.18176 4.96775 -0.0129745 4.0563 0.701326C2.23072 2.13668 2.30093 5.12756 2.3806 8.59104C2.3968 9.28914 2.41301 10.0048 2.41301 10.715C2.41301 10.8406 2.25772 10.9851 2.03358 10.9851C1.83126 10.9791 1.6298 11.0137 1.44111 11.0869C1.25242 11.1602 1.08036 11.2705 0.935118 11.4115C0.789874 11.5525 0.674407 11.7212 0.595555 11.9076C0.516704 12.094 0.476074 12.2943 0.476074 12.4967C0.476074 12.6991 0.516704 12.8995 0.595555 13.0859C0.674407 13.2723 0.789874 13.441 0.935118 13.582C1.08036 13.7229 1.25242 13.8333 1.44111 13.9066C1.6298 13.9798 1.83126 14.0144 2.03358 14.0084C2.25637 14.0084 2.41301 14.1434 2.41301 14.2784C2.41301 14.99 2.3968 15.7043 2.3806 16.4038C2.30093 19.8673 2.23207 22.8582 4.05766 24.2935C4.66456 24.7653 5.41586 25.0129 6.18435 24.9943C6.65774 24.9892 7.12844 24.9224 7.5846 24.7958C7.77646 24.7444 7.95632 24.6557 8.1139 24.5347C8.27147 24.4138 8.40369 24.263 8.503 24.091C8.6023 23.919 8.66675 23.7291 8.69267 23.5321C8.71858 23.3352 8.70545 23.1351 8.65403 22.9432C8.6026 22.7514 8.51389 22.5715 8.39296 22.4139C8.27203 22.2563 8.12124 22.1241 7.94922 22.0248C7.77719 21.9255 7.58728 21.8611 7.39035 21.8352C7.19341 21.8092 6.9933 21.8224 6.80143 21.8738V21.8643Z" fill="black"/>
<path d="M26.1311 10.9825C25.9083 10.9825 25.753 10.8475 25.753 10.7125C25.753 10.0009 25.7679 9.28523 25.7854 8.58578C25.8651 5.1223 25.934 2.13007 24.1084 0.694714C23.1969 -0.0195871 22.0114 -0.189723 20.5814 0.193758C20.3856 0.241479 20.2014 0.327847 20.0394 0.447787C19.8775 0.567728 19.7412 0.718822 19.6385 0.892193C19.5357 1.06556 19.4687 1.25771 19.4413 1.45736C19.4139 1.657 19.4267 1.86011 19.4788 2.05475C19.531 2.24939 19.6216 2.43163 19.7452 2.59078C19.8688 2.74992 20.023 2.88276 20.1987 2.98148C20.3744 3.0802 20.568 3.14281 20.7682 3.16564C20.9684 3.18847 21.1712 3.17106 21.3646 3.11442C21.8426 2.9875 22.1491 3.00235 22.2396 3.07392C22.8756 3.57352 22.8067 6.5482 22.7608 8.51556C22.7446 9.23797 22.727 9.97522 22.727 10.7098C22.7272 10.8142 22.7385 10.9183 22.7608 11.0203C22.8082 11.5444 22.9855 12.0484 23.2766 12.4868C22.986 12.9254 22.8088 13.4292 22.7608 13.9532C22.7385 14.0547 22.7272 14.1584 22.727 14.2624C22.727 14.9983 22.7446 15.7369 22.7608 16.4579C22.8067 18.4267 22.8742 21.4 22.2396 21.9009C22.1491 21.9725 21.8439 21.986 21.3632 21.8591C20.9801 21.7677 20.5764 21.8295 20.2381 22.0312C19.8997 22.2329 19.6535 22.5586 19.5516 22.9391C19.4498 23.3196 19.5004 23.7248 19.6927 24.0686C19.885 24.4123 20.2039 24.6675 20.5814 24.7797C21.0374 24.9075 21.5082 24.9746 21.9817 24.9796C22.7506 24.9969 23.5021 24.7489 24.1097 24.2774C25.9353 22.8421 25.8651 19.8512 25.7868 16.3864C25.7706 15.6883 25.7544 14.974 25.7544 14.261C25.7544 14.1368 25.9097 13.991 26.1324 13.991C26.3346 13.997 26.5359 13.9624 26.7244 13.8892C26.9129 13.8161 27.0848 13.7058 27.2299 13.5649C27.3751 13.4241 27.4904 13.2556 27.5692 13.0693C27.648 12.8831 27.6886 12.6829 27.6886 12.4807C27.6886 12.2785 27.648 12.0783 27.5692 11.892C27.4904 11.7058 27.3751 11.5373 27.2299 11.3964C27.0848 11.2556 26.9129 11.1453 26.7244 11.0721C26.5359 10.9989 26.3346 10.9643 26.1324 10.9704L26.1311 10.9825Z" fill="black"/>
</g>
<defs>
<clipPath id="clip0_17686_305630">
<rect width="27.1232" height="24.9857" fill="white" transform="translate(0.521484)"/>
</clipPath>
</defs>
</svg>
