<svg width="20" height="20" viewBox="0 0 20 20" fill="none" xmlns="http://www.w3.org/2000/svg">
<path fill-rule="evenodd" clip-rule="evenodd" d="M15.1817 3.5C15.0085 3.5 14.8371 3.5341 14.6771 3.60035C14.5172 3.66661 14.3719 3.76371 14.2494 3.88613L13.0763 5.05922L14.9408 6.92366L16.1139 5.75057C16.2363 5.62815 16.3334 5.48281 16.3996 5.32286C16.4659 5.16291 16.5 4.99148 16.5 4.81835C16.5 4.64522 16.4659 4.47379 16.3996 4.31384C16.3334 4.15389 16.2363 4.00856 16.1139 3.88613C15.9914 3.76371 15.8461 3.66661 15.6862 3.60035C15.5262 3.5341 15.3548 3.5 15.1817 3.5ZM13.8801 7.98432L12.0157 6.11988L4.51809 13.6175L3.81893 16.1811L6.38252 15.4819L13.8801 7.98432ZM14.1031 2.21453C14.4451 2.0729 14.8115 2 15.1817 2C15.5518 2 15.9182 2.0729 16.2602 2.21453C16.6021 2.35617 16.9128 2.56377 17.1745 2.82548C17.4362 3.08718 17.6438 3.39788 17.7855 3.73981C17.9271 4.08175 18 4.44824 18 4.81835C18 5.18846 17.9271 5.55495 17.7855 5.89689C17.6438 6.23882 17.4362 6.54952 17.1745 6.81122L7.30235 16.6834C7.21005 16.7757 7.09527 16.8423 6.96935 16.8766L2.94735 17.9736C2.6877 18.0444 2.41 17.9706 2.21969 17.7803C2.02937 17.59 1.95563 17.3123 2.02644 17.0526L3.12335 13.0306C3.1577 12.9047 3.2243 12.7899 3.3166 12.6977L13.1888 2.82548C13.4505 2.56377 13.7612 2.35617 14.1031 2.21453Z" fill="white"/>
</svg>
