<svg width="26" height="22" viewBox="0 0 26 22" fill="none" xmlns="http://www.w3.org/2000/svg">
<g clip-path="url(#clip0_17686_305625)">
<path d="M6.2373 11.6738H19.6869V12.6826H6.2373V11.6738Z" fill="black"/>
<path d="M6.2373 13.6904H19.6869V14.6992H6.2373V13.6904Z" fill="black"/>
<path d="M6.2373 15.709H15.652V16.7177H6.2373V15.709Z" fill="black"/>
<path d="M11.2808 5.28418H19.6867V10.3279H11.2808V5.28418Z" fill="black"/>
<path d="M6.2373 5.28418H10.6083V10.3279H6.2373V5.28418Z" fill="black"/>
<path d="M23.5541 0.913086H2.37064C1.88152 0.9173 1.41362 1.11347 1.06775 1.45935C0.721873 1.80522 0.525699 2.27312 0.521484 2.76224V19.2381C0.525548 19.7273 0.721656 20.1953 1.06755 20.5413C1.41344 20.8873 1.88142 21.0836 2.37064 21.0878H23.5541C24.0432 21.0836 24.5111 20.8874 24.857 20.5415C25.2029 20.1957 25.399 19.7278 25.4033 19.2387V2.76224C25.399 2.27312 25.2029 1.80522 24.857 1.45935C24.5111 1.11347 24.0432 0.9173 23.5541 0.913086ZM24.3945 19.2387C24.3956 19.3493 24.3746 19.4591 24.3327 19.5615C24.2909 19.664 24.229 19.7571 24.1508 19.8353C24.0725 19.9136 23.9794 19.9754 23.877 20.0173C23.7745 20.0591 23.6648 20.0802 23.5541 20.0791H2.37064C2.25998 20.0802 2.15021 20.0591 2.04776 20.0173C1.9453 19.9754 1.85223 19.9136 1.77397 19.8353C1.69572 19.7571 1.63385 19.664 1.592 19.5615C1.55014 19.4591 1.52914 19.3493 1.53022 19.2387V2.76282C1.52914 2.65215 1.55014 2.54238 1.592 2.43993C1.63385 2.33748 1.69572 2.24441 1.77397 2.16615C1.85223 2.08789 1.9453 2.02603 2.04776 1.98418C2.15021 1.94232 2.25998 1.92132 2.37064 1.9224H23.5541C23.6648 1.92132 23.7745 1.94232 23.877 1.98418C23.9794 2.02603 24.0725 2.08789 24.1508 2.16615C24.229 2.24441 24.2909 2.33748 24.3327 2.43993C24.3746 2.54238 24.3956 2.65215 24.3945 2.76282V19.2387Z" fill="black"/>
</g>
<defs>
<clipPath id="clip0_17686_305625">
<rect width="24.8818" height="20.1741" fill="white" transform="translate(0.521484 0.913086)"/>
</clipPath>
</defs>
</svg>
