<svg width="30" height="31" viewBox="0 0 30 31" fill="none" xmlns="http://www.w3.org/2000/svg">
<g clip-path="url(#clip0_24954_138496)">
<path d="M19.4888 0.519531H0.62144C0.278538 0.519531 0 0.797515 0 1.14097V20.0111C0 20.1759 0.0654731 20.334 0.181993 20.4505C0.298513 20.5671 0.456647 20.6325 0.62144 20.6325H7.95165C8.29456 20.6325 8.57309 20.354 8.57309 20.0111C8.57309 19.6682 8.29456 19.3897 7.95165 19.3897H1.24954V1.78128H18.8551V8.48339C18.8551 8.82629 19.1337 9.10483 19.4766 9.10483C19.8195 9.10483 20.098 8.82629 20.098 8.48339V1.1443C20.098 0.979508 20.0326 0.821373 19.916 0.704853C19.7995 0.588334 19.6414 0.52286 19.4766 0.52286" fill="black"/>
<path d="M29.3902 28.1484C29.2326 28.1484 29.0811 28.2117 28.9696 28.3232C28.8581 28.4353 28.7959 28.5868 28.797 28.7449V29.3353H28.2067C27.8965 29.3575 27.6562 29.616 27.6562 29.9273C27.6562 30.2386 27.8965 30.4966 28.2067 30.5193H29.3907C29.7159 30.5177 29.9794 30.2541 29.9811 29.929V28.7449C29.9794 28.4198 29.7159 28.1562 29.3907 28.1545" fill="black"/>
<path d="M23.8617 29.3296H21.8981C21.5879 29.3524 21.3477 29.6104 21.3477 29.9217C21.3477 30.2329 21.5879 30.4909 21.8981 30.5137H23.8617C24.026 30.5253 24.188 30.4687 24.3089 30.3561C24.4299 30.2435 24.4981 30.0864 24.4981 29.9217C24.4981 29.7569 24.4299 29.5993 24.3089 29.4872C24.188 29.3751 24.0265 29.318 23.8617 29.3296Z" fill="black"/>
<path d="M17.5493 29.3296H15.5856C15.4214 29.318 15.2594 29.3746 15.1384 29.4872C15.0175 29.5993 14.9492 29.7569 14.9492 29.9217C14.9492 30.0865 15.018 30.244 15.1384 30.3561C15.2594 30.4682 15.4208 30.5254 15.5856 30.5137H17.5493C17.8594 30.491 18.0997 30.2329 18.0997 29.9217C18.0997 29.6104 17.8594 29.3524 17.5493 29.3296Z" fill="black"/>
<path d="M11.6299 29.3309H11.0362V28.7466C11.0362 28.4204 10.7715 28.1562 10.4458 28.1562C10.1201 28.1562 9.85547 28.4204 9.85547 28.7466V29.9307C9.85713 30.2558 10.1207 30.5194 10.4458 30.521H11.6299C11.9401 30.4983 12.1803 30.2403 12.1803 29.929C12.1803 29.6177 11.9401 29.3592 11.6299 29.337" fill="black"/>
<path d="M10.4459 18.6717C10.771 18.67 11.0346 18.407 11.0362 18.0813V16.1177C11.0362 15.7915 10.7716 15.5273 10.4459 15.5273C10.1201 15.5273 9.85548 15.792 9.85548 16.1177V18.0813C9.85437 18.2378 9.91652 18.3887 10.0275 18.4997C10.1385 18.6107 10.2888 18.6723 10.4459 18.6717Z" fill="black"/>
<path d="M9.85547 24.3933C9.85547 24.7195 10.1196 24.9836 10.4458 24.9836C10.7721 24.9836 11.0362 24.7195 11.0362 24.3933V22.4263C11.0362 22.1001 10.7715 21.8359 10.4458 21.8359C10.1201 21.8359 9.85547 22.1001 9.85547 22.4263V24.3933Z" fill="black"/>
<path d="M11.6299 10.3867H10.4458C10.1196 10.3867 9.85547 10.6508 9.85547 10.9771V12.1578C9.85547 12.4841 10.1196 12.7482 10.4458 12.7482C10.7721 12.7482 11.0362 12.4841 11.0362 12.1578V11.5675H11.6299C11.955 11.5658 12.2186 11.3028 12.2203 10.9771C12.2208 10.8201 12.1592 10.6697 12.0483 10.5587C11.9373 10.4478 11.7869 10.3862 11.6299 10.3867Z" fill="black"/>
<path d="M17.5501 10.3867H15.5865C15.2602 10.3867 14.9961 10.6508 14.9961 10.9771C14.9961 11.3033 15.2602 11.5675 15.5865 11.5675H17.5501C17.8753 11.5658 18.1388 11.3028 18.1405 10.9771C18.1416 10.8201 18.0794 10.6697 17.9685 10.5587C17.8575 10.4478 17.7071 10.3862 17.5501 10.3867Z" fill="black"/>
<path d="M23.8587 10.3867H21.8951C21.5688 10.3867 21.3047 10.6508 21.3047 10.9771C21.3047 11.3033 21.5694 11.5675 21.8951 11.5675H23.8587C24.1849 11.5675 24.4491 11.3033 24.4491 10.9771C24.4491 10.6508 24.1849 10.3867 23.8587 10.3867Z" fill="black"/>
<path d="M29.3916 10.3867H28.2076C27.8813 10.3867 27.6172 10.6508 27.6172 10.9771C27.6172 11.3033 27.8813 11.5675 28.2076 11.5675H28.7979V12.1578C28.7863 12.3221 28.8429 12.4841 28.9555 12.605C29.0681 12.726 29.2252 12.7942 29.3899 12.7942C29.5547 12.7942 29.7123 12.726 29.8244 12.605C29.9365 12.4841 29.9936 12.3226 29.982 12.1578V10.9771C29.9803 10.6519 29.7168 10.3884 29.3916 10.3867Z" fill="black"/>
<path d="M29.3921 21.8287C29.2351 21.8276 29.0841 21.8897 28.9726 22.0007C28.8611 22.1117 28.7984 22.262 28.7984 22.419V24.3949C28.7867 24.5591 28.8433 24.7212 28.956 24.8421C29.068 24.9631 29.2256 25.0313 29.3904 25.0313C29.5552 25.0313 29.7128 24.9625 29.8249 24.8421C29.937 24.7212 29.9941 24.5597 29.9825 24.3949V22.4279C29.9825 22.1 29.72 21.8331 29.3921 21.8281" fill="black"/>
<path d="M29.3906 15.5156C29.0627 15.5156 28.7969 15.7814 28.7969 16.1093V18.0824C28.8196 18.3926 29.0776 18.6328 29.3889 18.6328C29.7002 18.6328 29.9582 18.3926 29.9809 18.0824V16.1188C29.9826 15.7897 29.7196 15.5212 29.3906 15.5162" fill="black"/>
<path d="M25.0586 19.9843C25.0537 20.1535 24.9432 20.3016 24.7823 20.3538L21.5725 21.4879C21.2817 21.59 21.0531 21.8186 20.951 22.1094L19.8263 25.3253C19.7725 25.4907 19.6183 25.6022 19.444 25.6016C19.2682 25.6016 19.1117 25.4907 19.0523 25.3253L15.7492 16.8271C15.6854 16.6734 15.7237 16.4964 15.8458 16.3827C15.9212 16.3061 16.0239 16.2623 16.1315 16.2617C16.1843 16.2617 16.2364 16.2706 16.2869 16.2867L24.7979 19.5925C24.9665 19.6447 25.0753 19.8084 25.0586 19.9843Z" fill="black"/>
</g>
<defs>
<clipPath id="clip0_24954_138496">
<rect width="29.9834" height="30" fill="white" transform="translate(0 0.519531)"/>
</clipPath>
</defs>
</svg>
