<svg width="122" height="82" viewBox="0 0 122 82" fill="none" xmlns="http://www.w3.org/2000/svg">
<path d="M81.2519 13.998V67.9981H13.752V13.998H81.2519ZM94.7519 30.873V7.24805C94.7519 5.45784 94.0408 3.74095 92.7749 2.47508C91.509 1.20921 89.7922 0.498047 88.0019 0.498047H7.00195C5.21174 0.498047 3.49485 1.20921 2.22898 2.47508C0.963111 3.74095 0.251953 5.45784 0.251953 7.24805V74.7481C0.251953 76.5383 0.963111 78.2552 2.22898 79.521C3.49485 80.7869 5.21174 81.4981 7.00195 81.4981H88.0019C89.7922 81.4981 91.509 80.7869 92.7749 79.521C94.0408 78.2552 94.7519 76.5383 94.7519 74.7481V51.1231L110.209 66.5806C111.154 67.5325 112.36 68.1817 113.674 68.4454C114.989 68.7092 116.352 68.5754 117.59 68.0613C118.829 67.5472 119.886 66.6759 120.627 65.5587C121.368 64.4414 121.76 63.1288 121.752 61.7881V20.1405C121.76 18.7998 121.368 17.4872 120.627 16.3699C119.886 15.2527 118.829 14.3814 117.59 13.8673C116.352 13.3532 114.989 13.2194 113.674 13.4832C112.36 13.7469 111.154 14.3961 110.209 15.348L94.7519 30.873Z" fill="#8A9099"/>
</svg>
