<svg width="90" height="90" viewBox="0 0 90 90" fill="none" xmlns="http://www.w3.org/2000/svg">
<path d="M27.6752 52.4252L40.0502 67.2752L57.3752 45.0002L79.6502 74.7002H10.3502L27.6752 52.4252ZM89.5502 79.6502V10.3502C89.5502 4.8557 85.0952 0.450195 79.6502 0.450195H10.3502C7.72455 0.450195 5.20645 1.49323 3.34984 3.34984C1.49323 5.20645 0.450195 7.72455 0.450195 10.3502V79.6502C0.450195 82.2758 1.49323 84.7939 3.34984 86.6506C5.20645 88.5072 7.72455 89.5502 10.3502 89.5502H79.6502C82.2758 89.5502 84.7939 88.5072 86.6506 86.6506C88.5072 84.7939 89.5502 82.2758 89.5502 79.6502Z" fill="#8A9099"/>
</svg>
