<svg width="22" height="22" viewBox="0 0 22 22" fill="none" xmlns="http://www.w3.org/2000/svg">
<path d="M3.23427 3.22187C4.77152 1.68343 6.73038 0.635748 8.86253 0.211418C10.9949 -0.213068 13.205 0.0047065 15.2139 0.837246C17.2226 1.66992 18.9395 3.07978 20.1473 4.88882C21.3553 6.69767 22 8.82451 22 11.0002C22 13.1758 21.3553 15.3028 20.1473 17.1115C18.9394 18.9204 17.2226 20.3304 15.2139 21.1627C13.2053 21.995 10.9951 22.2131 8.86253 21.7887C6.73026 21.3642 4.77128 20.3165 3.23427 18.7781C1.86419 17.4158 0.878227 15.7154 0.37645 13.8492C-0.125484 11.9828 -0.125484 10.017 0.37645 8.15079C0.878227 6.28438 1.86419 4.58404 3.23427 3.22195V3.22187ZM5.61529 13.9053L8.10399 16.3957L11.0083 13.4895L13.9126 16.3957L16.4013 13.9053L13.497 10.9991L16.4013 8.0928L13.9126 5.60242L11.0083 8.50869L8.10399 5.60242L5.61529 8.0928L8.51959 10.9991L5.61529 13.9053Z" fill="#8A9099"/>
</svg>
