<svg width="24" height="24" viewBox="0 0 24 24" fill="none" xmlns="http://www.w3.org/2000/svg">
<path d="M20.759 19.8752L19.8352 19.978C19.6294 20.0009 19.4359 20.088 19.2814 20.2271C19.127 20.3661 19.0193 20.5503 18.9734 20.754L18.7682 21.6688C18.739 21.7988 18.6845 21.9217 18.6078 22.0302C18.5311 22.1388 18.4337 22.2308 18.3213 22.301C18.209 22.3712 18.0839 22.418 17.9534 22.4389C17.8229 22.4598 17.6896 22.4542 17.5613 22.4225L16.6586 22.2008C16.4575 22.1512 16.246 22.1661 16.0537 22.2436C15.8614 22.3211 15.6978 22.4572 15.5859 22.633L15.0831 23.4211C15.0115 23.5332 14.9186 23.6297 14.8097 23.7051C14.7008 23.7805 14.5781 23.8333 14.4488 23.8604C14.3194 23.8875 14.1861 23.8883 14.0564 23.8629C13.9267 23.8374 13.8034 23.7862 13.6936 23.7122L12.9202 23.1917C12.7481 23.076 12.5445 23.0173 12.3378 23.0238C12.131 23.0302 11.9314 23.1015 11.7667 23.2276L11.027 23.7951C10.9218 23.8758 10.8018 23.9346 10.6738 23.968C10.5459 24.0014 10.4127 24.0087 10.2819 23.9896C10.1512 23.9705 10.0255 23.9254 9.91217 23.8567C9.79888 23.7881 9.70026 23.6974 9.62207 23.5899L9.07222 22.8343C8.94956 22.6658 8.7779 22.5401 8.58113 22.4748C8.38436 22.4094 8.17229 22.4076 7.97444 22.4695L7.08622 22.7489C6.96 22.7881 6.82732 22.8016 6.69588 22.7887C6.56444 22.7757 6.43687 22.7365 6.32059 22.6733C6.20431 22.6101 6.10163 22.5242 6.01854 22.4206C5.93544 22.317 5.87358 22.1978 5.83656 22.0699L5.57413 21.1716C5.516 20.9711 5.39737 20.7938 5.23472 20.6644C5.07208 20.535 4.87352 20.4601 4.66668 20.4499L3.73856 20.4048C3.60672 20.3984 3.47746 20.3656 3.3583 20.3083C3.23914 20.251 3.13247 20.1703 3.04449 20.071C2.95651 19.9717 2.88898 19.8558 2.84583 19.7299C2.80268 19.604 2.78477 19.4707 2.79315 19.3378L2.85323 18.4022C2.8666 18.1936 2.81517 17.9861 2.70609 17.8085C2.59701 17.6308 2.43574 17.492 2.24474 17.4113L1.38824 17.0485C1.26632 16.9967 1.15584 16.921 1.06326 16.8257C0.970676 16.7303 0.897847 16.6174 0.849026 16.4933C0.800206 16.3693 0.776373 16.2367 0.778919 16.1032C0.781466 15.9698 0.810342 15.8382 0.863859 15.7161L1.23732 14.8576C1.32056 14.6663 1.34262 14.4536 1.3004 14.249C1.25819 14.0444 1.15381 13.8583 1.0018 13.7164L0.319293 13.0796C0.222385 12.989 0.144294 12.8799 0.0895604 12.7585C0.0348268 12.6372 0.00454314 12.5061 0.000473112 12.3729C-0.00359692 12.2397 0.0186263 12.107 0.0658511 11.9825C0.113076 11.858 0.184361 11.7442 0.275556 11.6478L0.91769 10.9687C1.06083 10.8177 1.1537 10.6254 1.18334 10.4185C1.21297 10.2117 1.17791 10.0007 1.08303 9.81488L0.658143 8.98114C0.598032 8.86272 0.561836 8.73343 0.551651 8.60078C0.541466 8.46813 0.557499 8.33475 0.598817 8.2084C0.640136 8.08206 0.705914 7.96525 0.792338 7.86477C0.878762 7.76429 0.984109 7.68214 1.10226 7.62308L1.9352 7.2079C2.12078 7.11521 2.27313 6.96647 2.37107 6.78237C2.46901 6.59826 2.50768 6.38794 2.48169 6.18063L2.36441 5.25036C2.34766 5.11809 2.35716 4.98378 2.39236 4.85525C2.42756 4.72672 2.48775 4.60654 2.56944 4.50172C2.65112 4.3969 2.75266 4.30953 2.86814 4.24471C2.98362 4.17989 3.11073 4.1389 3.24206 4.12415L4.16537 4.02132C4.37115 3.99847 4.56475 3.91144 4.71921 3.77234C4.87368 3.63325 4.98132 3.44902 5.02716 3.24529L5.23239 2.33103C5.26167 2.20104 5.31626 2.07822 5.393 1.96972C5.46974 1.86122 5.5671 1.76921 5.67941 1.69903C5.79171 1.62884 5.91673 1.58189 6.04718 1.56091C6.17763 1.53994 6.31092 1.54534 6.43928 1.57682L7.34192 1.79897C7.54314 1.84865 7.7547 1.83371 7.9471 1.75624C8.1395 1.67877 8.30314 1.54263 8.41519 1.36681L8.91794 0.578654C8.9895 0.466628 9.08245 0.370096 9.19136 0.294682C9.30027 0.219267 9.42296 0.166474 9.55229 0.139389C9.68162 0.112304 9.81499 0.111462 9.94465 0.136914C10.0743 0.162366 10.1976 0.213607 10.3075 0.287642L11.0803 0.808067C11.2525 0.923621 11.4561 0.982248 11.6628 0.975817C11.8695 0.969386 12.0691 0.898216 12.2339 0.772176L12.9736 0.2047C13.0788 0.124057 13.1988 0.0653475 13.3267 0.0319824C13.4547 -0.00138273 13.5879 -0.00873393 13.7186 0.0103602C13.8494 0.0294542 13.975 0.0746079 14.0883 0.143196C14.2016 0.211784 14.3003 0.302438 14.3785 0.409868L14.9283 1.16553C15.0509 1.334 15.2225 1.45969 15.4192 1.52508C15.6159 1.59046 15.8279 1.59227 16.0256 1.53026L16.9129 1.25235C17.0391 1.21305 17.1718 1.19949 17.3033 1.21244C17.4347 1.2254 17.5623 1.26461 17.6786 1.32781C17.7949 1.391 17.8976 1.47691 17.9807 1.58053C18.0638 1.68415 18.1256 1.80341 18.1626 1.93138L18.4235 2.83108C18.4816 3.03169 18.6002 3.20904 18.7629 3.3384C18.9255 3.46776 19.1241 3.54271 19.331 3.55279L20.2591 3.5979C20.3909 3.60445 20.5201 3.63736 20.6392 3.69471C20.7583 3.75205 20.8649 3.8327 20.9529 3.93198C21.0408 4.03125 21.1084 4.14716 21.1516 4.27298C21.1948 4.39881 21.2128 4.53204 21.2045 4.66495L21.1444 5.60055C21.131 5.80902 21.1824 6.01652 21.2914 6.19414C21.4004 6.37176 21.5616 6.51064 21.7525 6.59144L22.6094 6.95424C22.7315 7.00563 22.8421 7.08104 22.935 7.17604C23.0278 7.27105 23.101 7.38376 23.1502 7.5076C23.1994 7.63144 23.2237 7.76393 23.2216 7.89734C23.2195 8.03076 23.1912 8.16242 23.1381 8.28465L22.7647 9.14313C22.6814 9.33445 22.6594 9.5472 22.7016 9.75176C22.7438 9.95632 22.8482 10.1425 23.0002 10.2844L23.6822 10.9212C23.7793 11.0117 23.8575 11.1208 23.9123 11.2421C23.9671 11.3635 23.9974 11.4946 24.0015 11.6279C24.0055 11.7611 23.9833 11.8939 23.936 12.0184C23.8887 12.1429 23.8173 12.2566 23.726 12.353L23.0843 13.032C22.9411 13.183 22.8481 13.3753 22.8184 13.5822C22.7887 13.789 22.8237 14.0001 22.9185 14.1859L23.3439 15.0196C23.4043 15.1382 23.4407 15.2677 23.4511 15.4006C23.4614 15.5335 23.4455 15.6671 23.4041 15.7937C23.3628 15.9203 23.2969 16.0374 23.2103 16.1381C23.1237 16.2387 23.0182 16.321 22.8997 16.3801L22.0668 16.7953C21.8811 16.8878 21.7286 17.0365 21.6306 17.2207C21.5327 17.4048 21.4941 17.6152 21.5203 17.8226L21.6371 18.7528C21.6534 18.8849 21.6436 19.0189 21.6082 19.147C21.5727 19.2752 21.5124 19.395 21.4307 19.4994C21.349 19.6038 21.2476 19.6908 21.1322 19.7553C21.0169 19.8198 20.89 19.8606 20.759 19.8752Z" fill="#F75D1B"/>
</svg>
