<svg width="41" height="58" viewBox="0 0 41 58" fill="none" xmlns="http://www.w3.org/2000/svg">
<mask id="path-1-inside-1_17537_302278" fill="white">
<path fill-rule="evenodd" clip-rule="evenodd" d="M4 0C1.79086 0 0 1.79086 0 3.99999V46.2957C0 48.5049 1.79086 50.2957 4 50.2957H12.1799L19.884 57.9998L27.5881 50.2957H36.2366C38.4457 50.2957 40.2366 48.5049 40.2366 46.2957V4C40.2366 1.79086 38.4457 0 36.2366 0H4Z"/>
</mask>
<path fill-rule="evenodd" clip-rule="evenodd" d="M4 0C1.79086 0 0 1.79086 0 3.99999V46.2957C0 48.5049 1.79086 50.2957 4 50.2957H12.1799L19.884 57.9998L27.5881 50.2957H36.2366C38.4457 50.2957 40.2366 48.5049 40.2366 46.2957V4C40.2366 1.79086 38.4457 0 36.2366 0H4Z" fill="white"/>
<path d="M12.1799 50.2957L12.887 49.5886L12.5942 49.2957H12.1799V50.2957ZM19.884 57.9998L19.1769 58.7069L19.884 59.414L20.5911 58.7069L19.884 57.9998ZM27.5881 50.2957V49.2957H27.1738L26.8809 49.5886L27.5881 50.2957ZM1 3.99999C1 2.34314 2.34314 1 4 1V-1C1.23858 -1 -1 1.23857 -1 3.99999H1ZM1 46.2957V3.99999H-1V46.2957H1ZM4 49.2957C2.34315 49.2957 1 47.9526 1 46.2957H-1C-1 49.0571 1.23858 51.2957 4 51.2957V49.2957ZM12.1799 49.2957H4V51.2957H12.1799V49.2957ZM20.5911 57.2927L12.887 49.5886L11.4728 51.0028L19.1769 58.7069L20.5911 57.2927ZM26.8809 49.5886L19.1769 57.2927L20.5911 58.7069L28.2952 51.0028L26.8809 49.5886ZM36.2366 49.2957H27.5881V51.2957H36.2366V49.2957ZM39.2366 46.2957C39.2366 47.9526 37.8934 49.2957 36.2366 49.2957V51.2957C38.998 51.2957 41.2366 49.0571 41.2366 46.2957H39.2366ZM39.2366 4V46.2957H41.2366V4H39.2366ZM36.2366 1C37.8934 1 39.2366 2.34315 39.2366 4H41.2366C41.2366 1.23858 38.998 -1 36.2366 -1V1ZM4 1H36.2366V-1H4V1Z" fill="#D4D8DD" mask="url(#path-1-inside-1_17537_302278)"/>
</svg>
